<mxfile host="Electron" modified="2021-03-16T12:18:54.204Z" agent="5.0 (Windows NT 10.0; Win64; x64) AppleWebKit/537.36 (KHTML, like Gecko) draw.io/14.1.8 Chrome/87.0.4280.88 Electron/11.1.1 Safari/537.36" etag="cwovoLpvPu2LuF5EyzyF" compressed="false" version="14.1.8" type="device">
  <diagram id="rlMw-q0PfVWBGVqXX4sL" name="Seite-1">
    <mxGraphModel dx="1609" dy="497" grid="1" gridSize="10" guides="1" tooltips="1" connect="1" arrows="1" fold="1" page="1" pageScale="1" pageWidth="827" pageHeight="1169" background="#000000" math="0" shadow="0">
      <root>
        <mxCell id="0" />
        <mxCell id="1" parent="0" />
        <mxCell id="P9dcjlZK2Tqvu_DsjHS7-11" value="" style="triangle;whiteSpace=wrap;html=1;rotation=-90;fillColor=#fff2cc;strokeColor=#d6b656;" parent="1" vertex="1">
          <mxGeometry x="265" y="225" width="150" height="200" as="geometry" />
        </mxCell>
        <mxCell id="P9dcjlZK2Tqvu_DsjHS7-3" value="Kosten / Budget" style="text;html=1;strokeColor=#d79b00;fillColor=#ffe6cc;align=center;verticalAlign=middle;whiteSpace=wrap;rounded=1;" parent="1" vertex="1">
          <mxGeometry x="414" y="385" width="80" height="40" as="geometry" />
        </mxCell>
        <mxCell id="P9dcjlZK2Tqvu_DsjHS7-4" value="Stakeholder-&lt;br&gt;zufriedenheit" style="text;html=1;strokeColor=#d79b00;fillColor=#ffe6cc;align=center;verticalAlign=middle;whiteSpace=wrap;rounded=1;dashed=1;" parent="1" vertex="1">
          <mxGeometry x="300" y="330" width="80" height="40" as="geometry" />
        </mxCell>
        <mxCell id="P9dcjlZK2Tqvu_DsjHS7-2" value="Zeit" style="text;html=1;strokeColor=#d79b00;fillColor=#ffe6cc;align=center;verticalAlign=middle;whiteSpace=wrap;rounded=1;" parent="1" vertex="1">
          <mxGeometry x="185" y="385" width="80" height="40" as="geometry" />
        </mxCell>
        <mxCell id="P9dcjlZK2Tqvu_DsjHS7-1" value="Qualität / Leistung" style="text;html=1;strokeColor=#d79b00;fillColor=#ffe6cc;align=center;verticalAlign=middle;whiteSpace=wrap;rounded=1;" parent="1" vertex="1">
          <mxGeometry x="300" y="220" width="80" height="40" as="geometry" />
        </mxCell>
        <mxCell id="P9dcjlZK2Tqvu_DsjHS7-13" value="&lt;ul&gt;&lt;li&gt;Ergebnisse&lt;/li&gt;&lt;li&gt;Qualität&lt;/li&gt;&lt;li&gt;Projektumfang / -inhalte&lt;/li&gt;&lt;/ul&gt;" style="rounded=0;whiteSpace=wrap;html=1;fontColor=#333333;align=left;spacingLeft=3;fillColor=none;strokeColor=none;" parent="1" vertex="1">
          <mxGeometry x="414" y="202.5" width="180" height="75" as="geometry" />
        </mxCell>
        <mxCell id="P9dcjlZK2Tqvu_DsjHS7-14" value="&lt;ul&gt;&lt;li&gt;Anfangs- und Endtermin&lt;/li&gt;&lt;li&gt;Meilensteine&lt;/li&gt;&lt;/ul&gt;" style="rounded=0;whiteSpace=wrap;html=1;fontColor=#333333;align=left;spacingLeft=3;fillColor=none;strokeColor=none;" parent="1" vertex="1">
          <mxGeometry x="-20" y="367.5" width="150" height="75" as="geometry" />
        </mxCell>
        <mxCell id="P9dcjlZK2Tqvu_DsjHS7-15" value="&lt;ul&gt;&lt;li&gt;lt. GPM-PM3 ebenso Faktor für erfolgreichen Projektabschluss&lt;/li&gt;&lt;/ul&gt;" style="rounded=0;whiteSpace=wrap;html=1;fontColor=#333333;align=left;spacingLeft=3;fillColor=none;strokeColor=none;" parent="1" vertex="1">
          <mxGeometry x="350" y="470" width="220" height="75" as="geometry" />
        </mxCell>
        <mxCell id="P9dcjlZK2Tqvu_DsjHS7-16" value="&lt;ul&gt;&lt;li&gt;Projektbudget&lt;/li&gt;&lt;li&gt;Personalressourcen&lt;/li&gt;&lt;/ul&gt;" style="rounded=0;whiteSpace=wrap;html=1;align=left;spacingLeft=3;fillColor=none;strokeColor=none;fontColor=#FFFFFF;" parent="1" vertex="1">
          <mxGeometry x="540" y="367.5" width="160" height="75" as="geometry" />
        </mxCell>
        <mxCell id="P9dcjlZK2Tqvu_DsjHS7-17" value="" style="shape=curlyBracket;whiteSpace=wrap;html=1;rounded=1;fillColor=#ffe6cc;align=left;strokeColor=#d79b00;" parent="1" vertex="1">
          <mxGeometry x="420" y="215" width="20" height="50" as="geometry" />
        </mxCell>
        <mxCell id="P9dcjlZK2Tqvu_DsjHS7-18" value="" style="shape=curlyBracket;whiteSpace=wrap;html=1;rounded=1;fillColor=#ffe6cc;align=left;strokeColor=#d79b00;" parent="1" vertex="1">
          <mxGeometry x="550" y="390" width="20" height="30" as="geometry" />
        </mxCell>
        <mxCell id="P9dcjlZK2Tqvu_DsjHS7-19" value="" style="shape=curlyBracket;whiteSpace=wrap;html=1;rounded=1;fillColor=#ffe6cc;align=left;strokeColor=#d79b00;" parent="1" vertex="1">
          <mxGeometry x="360" y="490" width="20" height="40" as="geometry" />
        </mxCell>
        <mxCell id="P9dcjlZK2Tqvu_DsjHS7-20" value="" style="shape=curlyBracket;whiteSpace=wrap;html=1;rounded=1;fillColor=#ffe6cc;align=left;rotation=-180;strokeColor=#d79b00;" parent="1" vertex="1">
          <mxGeometry x="100" y="380" width="20" height="50" as="geometry" />
        </mxCell>
        <mxCell id="P9dcjlZK2Tqvu_DsjHS7-21" value="" style="endArrow=none;html=1;entryX=0;entryY=0.5;entryDx=0;entryDy=0;exitX=0.1;exitY=0.5;exitDx=0;exitDy=0;exitPerimeter=0;dashed=1;fillColor=#ffe6cc;strokeColor=#d79b00;" parent="1" source="P9dcjlZK2Tqvu_DsjHS7-20" target="P9dcjlZK2Tqvu_DsjHS7-2" edge="1">
          <mxGeometry width="50" height="50" relative="1" as="geometry">
            <mxPoint x="130" y="470" as="sourcePoint" />
            <mxPoint x="180" y="420" as="targetPoint" />
          </mxGeometry>
        </mxCell>
        <mxCell id="P9dcjlZK2Tqvu_DsjHS7-22" value="" style="endArrow=none;html=1;entryX=0.5;entryY=1;entryDx=0;entryDy=0;exitX=0.1;exitY=0.5;exitDx=0;exitDy=0;exitPerimeter=0;dashed=1;fillColor=#ffe6cc;strokeColor=#d79b00;" parent="1" source="P9dcjlZK2Tqvu_DsjHS7-19" target="P9dcjlZK2Tqvu_DsjHS7-4" edge="1">
          <mxGeometry width="50" height="50" relative="1" as="geometry">
            <mxPoint x="310" y="530" as="sourcePoint" />
            <mxPoint x="360" y="480" as="targetPoint" />
            <Array as="points">
              <mxPoint x="340" y="510" />
            </Array>
          </mxGeometry>
        </mxCell>
        <mxCell id="P9dcjlZK2Tqvu_DsjHS7-23" value="" style="endArrow=none;html=1;exitX=1;exitY=0.5;exitDx=0;exitDy=0;entryX=0.1;entryY=0.5;entryDx=0;entryDy=0;entryPerimeter=0;dashed=1;fillColor=#ffe6cc;strokeColor=#d79b00;" parent="1" source="P9dcjlZK2Tqvu_DsjHS7-3" target="P9dcjlZK2Tqvu_DsjHS7-18" edge="1">
          <mxGeometry width="50" height="50" relative="1" as="geometry">
            <mxPoint x="500" y="430" as="sourcePoint" />
            <mxPoint x="550" y="380" as="targetPoint" />
          </mxGeometry>
        </mxCell>
        <mxCell id="P9dcjlZK2Tqvu_DsjHS7-24" value="" style="endArrow=none;html=1;exitX=1;exitY=0.5;exitDx=0;exitDy=0;entryX=0.1;entryY=0.5;entryDx=0;entryDy=0;entryPerimeter=0;dashed=1;fillColor=#ffe6cc;strokeColor=#d79b00;" parent="1" source="P9dcjlZK2Tqvu_DsjHS7-1" target="P9dcjlZK2Tqvu_DsjHS7-17" edge="1">
          <mxGeometry width="50" height="50" relative="1" as="geometry">
            <mxPoint x="400" y="190" as="sourcePoint" />
            <mxPoint x="450" y="140" as="targetPoint" />
          </mxGeometry>
        </mxCell>
        <mxCell id="Iog7Fy6YFF1BFihSARz4-1" value="&lt;ul&gt;&lt;li&gt;Anfangs- und Endtermin&lt;/li&gt;&lt;li&gt;Meilensteine&lt;/li&gt;&lt;/ul&gt;" style="rounded=0;whiteSpace=wrap;html=1;align=left;spacingLeft=3;fillColor=none;strokeColor=none;fontColor=#FFFFFF;" vertex="1" parent="1">
          <mxGeometry x="-20" y="367.5" width="150" height="75" as="geometry" />
        </mxCell>
        <mxCell id="Iog7Fy6YFF1BFihSARz4-2" value="&lt;ul&gt;&lt;li&gt;Ergebnisse&lt;/li&gt;&lt;li&gt;Qualität&lt;/li&gt;&lt;li&gt;Projektumfang / -inhalte&lt;/li&gt;&lt;/ul&gt;" style="rounded=0;whiteSpace=wrap;html=1;align=left;spacingLeft=3;fillColor=none;strokeColor=none;fontColor=#FFFFFF;" vertex="1" parent="1">
          <mxGeometry x="414" y="202.5" width="180" height="75" as="geometry" />
        </mxCell>
        <mxCell id="Iog7Fy6YFF1BFihSARz4-3" value="&lt;ul&gt;&lt;li&gt;lt. GPM-PM3 ebenso Faktor für erfolgreichen Projektabschluss&lt;/li&gt;&lt;/ul&gt;" style="rounded=0;whiteSpace=wrap;html=1;align=left;spacingLeft=3;fillColor=none;strokeColor=none;fontColor=#FFFFFF;" vertex="1" parent="1">
          <mxGeometry x="350" y="470" width="220" height="75" as="geometry" />
        </mxCell>
      </root>
    </mxGraphModel>
  </diagram>
</mxfile>
